<mxfile host="app.diagrams.net" agent="Mozilla/5.0 (Windows NT 10.0; Win64; x64) AppleWebKit/537.36 (KHTML, like Gecko) Chrome/138.0.0.0 Safari/537.36 Edg/138.0.0.0" version="28.0.5">
  <diagram name="페이지-1" id="LSf1G-oPDong2yc2xEMc">
    <mxGraphModel dx="4844" dy="1308" grid="1" gridSize="10" guides="1" tooltips="1" connect="1" arrows="1" fold="1" page="1" pageScale="1" pageWidth="827" pageHeight="1169" math="0" shadow="0">
      <root>
        <mxCell id="0" />
        <mxCell id="1" parent="0" />
        <mxCell id="x-kcLSuFVJ4WcSOrK4Yc-6" value="게시글 신고 관리" style="shape=folder;fontStyle=1;spacingTop=10;tabWidth=40;tabHeight=14;tabPosition=left;html=1;whiteSpace=wrap;verticalAlign=top;" parent="1" vertex="1">
          <mxGeometry x="481" y="1310" width="294" height="210" as="geometry" />
        </mxCell>
        <mxCell id="x-kcLSuFVJ4WcSOrK4Yc-7" value="신고글&amp;nbsp;&lt;div&gt;목록 조회&lt;/div&gt;" style="shape=folder;fontStyle=1;spacingTop=10;tabWidth=40;tabHeight=14;tabPosition=left;html=1;whiteSpace=wrap;verticalAlign=middle;fontSize=10;" parent="1" vertex="1">
          <mxGeometry x="530" y="1395" width="70" height="60" as="geometry" />
        </mxCell>
        <mxCell id="x-kcLSuFVJ4WcSOrK4Yc-8" value="신고글 삭제" style="shape=folder;fontStyle=1;spacingTop=10;tabWidth=40;tabHeight=14;tabPosition=left;html=1;whiteSpace=wrap;verticalAlign=middle;fontSize=10;" parent="1" vertex="1">
          <mxGeometry x="654" y="1356" width="70" height="60" as="geometry" />
        </mxCell>
        <mxCell id="x-kcLSuFVJ4WcSOrK4Yc-10" value="개별&amp;nbsp;&lt;div&gt;신고글&amp;nbsp;&lt;span style=&quot;background-color: transparent; color: light-dark(rgb(0, 0, 0), rgb(255, 255, 255));&quot;&gt;조회&lt;/span&gt;&lt;/div&gt;" style="shape=folder;fontStyle=1;spacingTop=10;tabWidth=40;tabHeight=14;tabPosition=left;html=1;whiteSpace=wrap;verticalAlign=middle;fontSize=10;" parent="1" vertex="1">
          <mxGeometry x="654" y="1440" width="70" height="60" as="geometry" />
        </mxCell>
        <mxCell id="x-kcLSuFVJ4WcSOrK4Yc-12" style="edgeStyle=orthogonalEdgeStyle;rounded=0;orthogonalLoop=1;jettySize=auto;html=1;exitX=0;exitY=0;exitDx=70;exitDy=37;exitPerimeter=0;entryX=0;entryY=0;entryDx=0;entryDy=37;entryPerimeter=0;dashed=1;startSize=1;endSize=1;" parent="1" source="x-kcLSuFVJ4WcSOrK4Yc-7" target="x-kcLSuFVJ4WcSOrK4Yc-8" edge="1">
          <mxGeometry relative="1" as="geometry" />
        </mxCell>
        <mxCell id="x-kcLSuFVJ4WcSOrK4Yc-13" style="edgeStyle=orthogonalEdgeStyle;rounded=0;orthogonalLoop=1;jettySize=auto;html=1;exitX=0;exitY=0;exitDx=70;exitDy=37;exitPerimeter=0;entryX=0;entryY=0;entryDx=0;entryDy=37;entryPerimeter=0;dashed=1;startSize=1;endSize=1;" parent="1" source="x-kcLSuFVJ4WcSOrK4Yc-7" target="x-kcLSuFVJ4WcSOrK4Yc-10" edge="1">
          <mxGeometry relative="1" as="geometry">
            <mxPoint x="532.31" y="1421.24" as="sourcePoint" />
            <mxPoint x="532.52" y="1447.52" as="targetPoint" />
          </mxGeometry>
        </mxCell>
        <mxCell id="G7H6iAO3qgnh4qPglECx-6" style="edgeStyle=orthogonalEdgeStyle;rounded=0;orthogonalLoop=1;jettySize=auto;html=1;exitX=0.5;exitY=1;exitDx=0;exitDy=0;exitPerimeter=0;entryX=0.502;entryY=0.068;entryDx=0;entryDy=0;entryPerimeter=0;dashed=1;strokeColor=default;align=center;verticalAlign=middle;fontFamily=Helvetica;fontSize=11;fontColor=default;labelBackgroundColor=default;startSize=1;endArrow=classic;endSize=1;" edge="1" parent="1" source="x-kcLSuFVJ4WcSOrK4Yc-26" target="x-kcLSuFVJ4WcSOrK4Yc-36">
          <mxGeometry relative="1" as="geometry" />
        </mxCell>
        <mxCell id="x-kcLSuFVJ4WcSOrK4Yc-26" value="Main" style="shape=folder;fontStyle=1;spacingTop=10;tabWidth=40;tabHeight=14;tabPosition=left;html=1;whiteSpace=wrap;verticalAlign=top;" parent="1" vertex="1">
          <mxGeometry x="90" y="1460" width="294" height="210" as="geometry" />
        </mxCell>
        <mxCell id="x-kcLSuFVJ4WcSOrK4Yc-27" value="로그인" style="shape=folder;fontStyle=1;spacingTop=10;tabWidth=40;tabHeight=14;tabPosition=left;html=1;whiteSpace=wrap;verticalAlign=middle;fontSize=10;" parent="1" vertex="1">
          <mxGeometry x="157" y="1535" width="70" height="60" as="geometry" />
        </mxCell>
        <mxCell id="x-kcLSuFVJ4WcSOrK4Yc-28" value="Main" style="shape=folder;fontStyle=1;spacingTop=10;tabWidth=40;tabHeight=14;tabPosition=left;html=1;whiteSpace=wrap;verticalAlign=middle;fontSize=10;" parent="1" vertex="1">
          <mxGeometry x="247" y="1535" width="70" height="60" as="geometry" />
        </mxCell>
        <mxCell id="x-kcLSuFVJ4WcSOrK4Yc-29" style="edgeStyle=orthogonalEdgeStyle;rounded=0;orthogonalLoop=1;jettySize=auto;html=1;exitX=0;exitY=0;exitDx=70;exitDy=37;exitPerimeter=0;entryX=0;entryY=0;entryDx=0;entryDy=37;entryPerimeter=0;dashed=1;startSize=1;endSize=1;" parent="1" source="x-kcLSuFVJ4WcSOrK4Yc-27" target="x-kcLSuFVJ4WcSOrK4Yc-28" edge="1">
          <mxGeometry relative="1" as="geometry" />
        </mxCell>
        <mxCell id="x-kcLSuFVJ4WcSOrK4Yc-34" value="회원 관리" style="shape=folder;fontStyle=1;spacingTop=10;tabWidth=40;tabHeight=14;tabPosition=left;html=1;whiteSpace=wrap;verticalAlign=top;" parent="1" vertex="1">
          <mxGeometry x="92" y="1170" width="294" height="210" as="geometry" />
        </mxCell>
        <mxCell id="x-kcLSuFVJ4WcSOrK4Yc-35" value="회원 목록 조회" style="shape=folder;fontStyle=1;spacingTop=10;tabWidth=40;tabHeight=14;tabPosition=left;html=1;whiteSpace=wrap;verticalAlign=middle;fontSize=10;" parent="1" vertex="1">
          <mxGeometry x="141" y="1245" width="70" height="60" as="geometry" />
        </mxCell>
        <mxCell id="x-kcLSuFVJ4WcSOrK4Yc-36" value="게시글 신고" style="shape=folder;fontStyle=1;spacingTop=10;tabWidth=40;tabHeight=14;tabPosition=left;html=1;whiteSpace=wrap;verticalAlign=top;" parent="1" vertex="1">
          <mxGeometry x="90" y="1750" width="294" height="210" as="geometry" />
        </mxCell>
        <mxCell id="x-kcLSuFVJ4WcSOrK4Yc-37" value="게시글 신고" style="shape=folder;fontStyle=1;spacingTop=10;tabWidth=40;tabHeight=14;tabPosition=left;html=1;whiteSpace=wrap;verticalAlign=middle;fontSize=10;" parent="1" vertex="1">
          <mxGeometry x="203" y="1830.5" width="70" height="60" as="geometry" />
        </mxCell>
        <mxCell id="x-kcLSuFVJ4WcSOrK4Yc-38" value="서비스 통계" style="shape=folder;fontStyle=1;spacingTop=10;tabWidth=40;tabHeight=14;tabPosition=left;html=1;whiteSpace=wrap;verticalAlign=top;" parent="1" vertex="1">
          <mxGeometry x="-309" y="1460" width="294" height="210" as="geometry" />
        </mxCell>
        <mxCell id="x-kcLSuFVJ4WcSOrK4Yc-39" value="좋아요 설정" style="shape=folder;fontStyle=1;spacingTop=10;tabWidth=40;tabHeight=14;tabPosition=left;html=1;whiteSpace=wrap;verticalAlign=middle;fontSize=10;" parent="1" vertex="1">
          <mxGeometry x="-259" y="1535" width="70" height="60" as="geometry" />
        </mxCell>
        <mxCell id="x-kcLSuFVJ4WcSOrK4Yc-40" value="좋아요 해제" style="shape=folder;fontStyle=1;spacingTop=10;tabWidth=40;tabHeight=14;tabPosition=left;html=1;whiteSpace=wrap;verticalAlign=middle;fontSize=10;" parent="1" vertex="1">
          <mxGeometry x="-139" y="1535" width="70" height="60" as="geometry" />
        </mxCell>
        <mxCell id="x-kcLSuFVJ4WcSOrK4Yc-44" value="회원 정지" style="shape=folder;fontStyle=1;spacingTop=10;tabWidth=40;tabHeight=14;tabPosition=left;html=1;whiteSpace=wrap;verticalAlign=middle;fontSize=10;" parent="1" vertex="1">
          <mxGeometry x="261" y="1220" width="70" height="60" as="geometry" />
        </mxCell>
        <mxCell id="x-kcLSuFVJ4WcSOrK4Yc-45" value="회원 탈퇴" style="shape=folder;fontStyle=1;spacingTop=10;tabWidth=40;tabHeight=14;tabPosition=left;html=1;whiteSpace=wrap;verticalAlign=middle;fontSize=10;" parent="1" vertex="1">
          <mxGeometry x="261" y="1300" width="70" height="60" as="geometry" />
        </mxCell>
        <mxCell id="x-kcLSuFVJ4WcSOrK4Yc-46" value="댓글 신고 관리" style="shape=folder;fontStyle=1;spacingTop=10;tabWidth=40;tabHeight=14;tabPosition=left;html=1;whiteSpace=wrap;verticalAlign=top;" parent="1" vertex="1">
          <mxGeometry x="480" y="1595" width="294" height="210" as="geometry" />
        </mxCell>
        <mxCell id="x-kcLSuFVJ4WcSOrK4Yc-47" value="신고 댓글&amp;nbsp;&lt;div&gt;목록 조회&lt;/div&gt;" style="shape=folder;fontStyle=1;spacingTop=10;tabWidth=40;tabHeight=14;tabPosition=left;html=1;whiteSpace=wrap;verticalAlign=middle;fontSize=10;" parent="1" vertex="1">
          <mxGeometry x="529" y="1680" width="70" height="60" as="geometry" />
        </mxCell>
        <mxCell id="x-kcLSuFVJ4WcSOrK4Yc-48" value="신고 댓글 삭제" style="shape=folder;fontStyle=1;spacingTop=10;tabWidth=40;tabHeight=14;tabPosition=left;html=1;whiteSpace=wrap;verticalAlign=middle;fontSize=10;" parent="1" vertex="1">
          <mxGeometry x="653" y="1641" width="70" height="60" as="geometry" />
        </mxCell>
        <mxCell id="x-kcLSuFVJ4WcSOrK4Yc-49" value="개별&amp;nbsp;&lt;div&gt;신고 댓글&amp;nbsp;&lt;span style=&quot;background-color: transparent; color: light-dark(rgb(0, 0, 0), rgb(255, 255, 255));&quot;&gt;조회&lt;/span&gt;&lt;/div&gt;" style="shape=folder;fontStyle=1;spacingTop=10;tabWidth=40;tabHeight=14;tabPosition=left;html=1;whiteSpace=wrap;verticalAlign=middle;fontSize=10;" parent="1" vertex="1">
          <mxGeometry x="653" y="1725" width="70" height="60" as="geometry" />
        </mxCell>
        <mxCell id="x-kcLSuFVJ4WcSOrK4Yc-50" style="edgeStyle=orthogonalEdgeStyle;rounded=0;orthogonalLoop=1;jettySize=auto;html=1;exitX=0;exitY=0;exitDx=70;exitDy=37;exitPerimeter=0;entryX=0;entryY=0;entryDx=0;entryDy=37;entryPerimeter=0;dashed=1;startSize=1;endSize=1;" parent="1" source="x-kcLSuFVJ4WcSOrK4Yc-47" target="x-kcLSuFVJ4WcSOrK4Yc-48" edge="1">
          <mxGeometry relative="1" as="geometry" />
        </mxCell>
        <mxCell id="x-kcLSuFVJ4WcSOrK4Yc-51" style="edgeStyle=orthogonalEdgeStyle;rounded=0;orthogonalLoop=1;jettySize=auto;html=1;exitX=0;exitY=0;exitDx=70;exitDy=37;exitPerimeter=0;entryX=0;entryY=0;entryDx=0;entryDy=37;entryPerimeter=0;dashed=1;startSize=1;endSize=1;" parent="1" source="x-kcLSuFVJ4WcSOrK4Yc-47" target="x-kcLSuFVJ4WcSOrK4Yc-49" edge="1">
          <mxGeometry relative="1" as="geometry">
            <mxPoint x="531.31" y="1706.24" as="sourcePoint" />
            <mxPoint x="531.52" y="1732.52" as="targetPoint" />
          </mxGeometry>
        </mxCell>
        <mxCell id="G7H6iAO3qgnh4qPglECx-2" style="edgeStyle=orthogonalEdgeStyle;rounded=0;orthogonalLoop=1;jettySize=auto;html=1;dashed=1;strokeColor=default;align=center;verticalAlign=middle;fontFamily=Helvetica;fontSize=11;fontColor=default;labelBackgroundColor=default;startSize=1;endArrow=classic;endSize=1;exitX=0.5;exitY=0.062;exitDx=0;exitDy=0;exitPerimeter=0;entryX=0.495;entryY=1.01;entryDx=0;entryDy=0;entryPerimeter=0;" edge="1" parent="1" source="x-kcLSuFVJ4WcSOrK4Yc-26" target="x-kcLSuFVJ4WcSOrK4Yc-34">
          <mxGeometry relative="1" as="geometry">
            <mxPoint x="237.01587301587324" y="1463" as="sourcePoint" />
            <mxPoint x="236" y="1381" as="targetPoint" />
          </mxGeometry>
        </mxCell>
        <mxCell id="G7H6iAO3qgnh4qPglECx-3" style="edgeStyle=orthogonalEdgeStyle;rounded=0;orthogonalLoop=1;jettySize=auto;html=1;dashed=1;strokeColor=default;align=center;verticalAlign=middle;fontFamily=Helvetica;fontSize=11;fontColor=default;labelBackgroundColor=default;startSize=1;endArrow=classic;endSize=1;" edge="1" parent="1" source="x-kcLSuFVJ4WcSOrK4Yc-26">
          <mxGeometry relative="1" as="geometry">
            <mxPoint x="-14" y="1565" as="targetPoint" />
          </mxGeometry>
        </mxCell>
        <mxCell id="G7H6iAO3qgnh4qPglECx-4" style="edgeStyle=orthogonalEdgeStyle;rounded=0;orthogonalLoop=1;jettySize=auto;html=1;exitX=0;exitY=0;exitDx=294;exitDy=112;exitPerimeter=0;entryX=0;entryY=0;entryDx=0;entryDy=112;entryPerimeter=0;dashed=1;strokeColor=default;align=center;verticalAlign=middle;fontFamily=Helvetica;fontSize=11;fontColor=default;labelBackgroundColor=default;startSize=1;endArrow=classic;endSize=1;" edge="1" parent="1" source="x-kcLSuFVJ4WcSOrK4Yc-26" target="x-kcLSuFVJ4WcSOrK4Yc-6">
          <mxGeometry relative="1" as="geometry" />
        </mxCell>
        <mxCell id="G7H6iAO3qgnh4qPglECx-5" style="edgeStyle=orthogonalEdgeStyle;rounded=0;orthogonalLoop=1;jettySize=auto;html=1;entryX=0;entryY=0;entryDx=0;entryDy=112;entryPerimeter=0;dashed=1;strokeColor=default;align=center;verticalAlign=middle;fontFamily=Helvetica;fontSize=11;fontColor=default;labelBackgroundColor=default;startSize=1;endArrow=classic;endSize=1;" edge="1" parent="1" source="x-kcLSuFVJ4WcSOrK4Yc-26" target="x-kcLSuFVJ4WcSOrK4Yc-46">
          <mxGeometry relative="1" as="geometry">
            <Array as="points">
              <mxPoint x="432" y="1572" />
              <mxPoint x="432" y="1707" />
            </Array>
          </mxGeometry>
        </mxCell>
      </root>
    </mxGraphModel>
  </diagram>
</mxfile>
